<svg xmlns="http://www.w3.org/2000/svg" width="100" height="100" viewBox="0 0 100 100"
    id="microphone">
    <g>
        <path
        fill="#fff"
            d="M52 75.9V86h14c1.1 0 2 .9 2 2s-.9 2-2 2H34c-1.1 0-2-.9-2-2s.9-2 2-2h14V75.9c-13.4-1-24-12.3-24-25.9 0-1.1.9-2 2-2s2 .9 2 2c0 12.1 9.9 22 22 22s22-9.9 22-22c0-1.1.9-2 2-2s2 .9 2 2c0 13.7-10.6 24.9-24 25.9zM65 25v25c0 8.3-6.7 15-15 15s-15-6.7-15-15V25c0-8.3 6.7-15 15-15s15 6.7 15 15zm-4 0c0-6.1-4.9-11-11-11s-11 4.9-11 11v25c0 6.1 4.9 11 11 11s11-4.9 11-11V25z"></path>
    </g>
    <g>
        <path fill="#fff" d="M1084-650v1684H-700V-650h1784m8-8H-708v1700h1800V-658z"></path>
    </g>
</svg>